<svg width="24" height="22" viewBox="0 0 24 22" fill="none" xmlns="http://www.w3.org/2000/svg">
<g clip-path="url(#clip0_108_161)">
<path d="M12.65 14.1309C12.79 13.8062 12.7 13.4365 12.42 13.184L10.33 11.3263L10.36 11.2993C12.1 9.54981 13.34 7.53882 14.07 5.41061H16.01C16.55 5.41061 17 5.00481 17 4.51784V4.49981C17 4.01284 16.55 3.60704 16.01 3.60704H10V2.70525C10 2.20927 9.55 1.80347 9 1.80347C8.45 1.80347 8 2.20927 8 2.70525V3.60704H1.99C1.45 3.60704 1 4.01284 1 4.49981C1 4.99579 1.45 5.39257 1.99 5.39257H12.17C11.5 7.14204 10.44 8.79231 9 10.2352C8.19 9.43257 7.51 8.55784 6.94 7.63802C6.78 7.3765 6.49 7.21418 6.16 7.21418C5.47 7.21418 5.03 7.89052 5.37 8.43159C6 9.45061 6.77 10.4245 7.67 11.3263L3.3 15.213C2.9 15.5647 2.9 16.1419 3.3 16.4936C3.69 16.8453 4.32 16.8453 4.72 16.4936L9 12.6249L11.02 14.4465C11.53 14.9064 12.4 14.7351 12.65 14.1309ZM17.5 9.01775C16.9 9.01775 16.36 9.35141 16.15 9.86543L12.48 18.7029C12.24 19.253 12.7 19.8392 13.35 19.8392C13.74 19.8392 14.09 19.6228 14.23 19.2891L15.12 17.1338H19.87L20.77 19.2891C20.91 19.6137 21.26 19.8392 21.65 19.8392C22.3 19.8392 22.76 19.253 22.53 18.7029L18.86 9.86543C18.64 9.35141 18.1 9.01775 17.5 9.01775ZM15.88 15.3303L17.5 11.4255L19.12 15.3303H15.88Z" fill="url(#paint0_linear_108_161)"/>
</g>
<defs>
<linearGradient id="paint0_linear_108_161" x1="11.795" y1="1.80347" x2="11.795" y2="19.8392" gradientUnits="userSpaceOnUse">
<stop stop-color="#9C9C9C"/>
<stop offset="1" stop-color="#707070"/>
</linearGradient>
<clipPath id="clip0_108_161">
<rect width="24" height="21.6429" fill="white"/>
</clipPath>
</defs>
</svg>
