<svg width="34" height="34" viewBox="0 0 34 34" fill="none" xmlns="http://www.w3.org/2000/svg">
<path d="M9.265 7.08431C9.35 8.34514 9.5625 9.57764 9.9025 10.7535L8.2025 12.4535C7.62167 10.7535 7.25333 8.95431 7.12583 7.08431H9.265ZM23.2333 24.1126C24.4375 24.4526 25.67 24.6651 26.9167 24.7501V26.861C25.0467 26.7335 23.2475 26.3651 21.5333 25.7985L23.2333 24.1126ZM10.625 4.25098H5.66667C4.8875 4.25098 4.25 4.88848 4.25 5.66764C4.25 18.9701 15.0308 29.751 28.3333 29.751C29.1125 29.751 29.75 29.1135 29.75 28.3343V23.3901C29.75 22.611 29.1125 21.9735 28.3333 21.9735C26.5767 21.9735 24.8625 21.6901 23.2758 21.166C23.1342 21.1093 22.9783 21.0951 22.8367 21.0951C22.4683 21.0951 22.1142 21.2368 21.8308 21.506L18.7142 24.6226C14.705 22.5685 11.4183 19.296 9.37833 15.2868L12.495 12.1701C12.8917 11.7735 13.005 11.221 12.8492 10.7251C12.325 9.13848 12.0417 7.43848 12.0417 5.66764C12.0417 4.88848 11.4042 4.25098 10.625 4.25098Z" fill="url(#paint0_linear_108_175)"/>
<defs>
<linearGradient id="paint0_linear_108_175" x1="17" y1="4.25098" x2="17" y2="29.751" gradientUnits="userSpaceOnUse">
<stop stop-color="#9C9C9C"/>
<stop offset="1" stop-color="#707070"/>
</linearGradient>
</defs>
</svg>
